name processed_emg_signals
nRows=83
nColumns=7
 
endheader
time	RGLTMED	RRF	RADDLONG	RBF	RTA	RGM
0.001101	0.0920997931364867	0.0427855851128662	0.0212664727288067	0.0315235934158738	0.155677176627146	0.0177747900129667
0.0021009999999999996	0.097637744598025	0.052487426556554	0.0264263445147843	0.0336633481793749	0.1635391218350645	0.0138766695667619
0.0031009999999999996	0.1032295244516516	0.0621891704670377	0.0316387110238914	0.0358240888629468	0.1714486326198454	0.009961815698719
0.004100999999999999	0.1088719030055309	0.0718845716734904	0.0369015066574217	0.0380046640201709	0.1794009175720914	0.0060323302902675
0.005101	0.1145615812717605	0.0815673622249947	0.042212617973689	0.0402038966002195	0.1873911201727976	0.0020903244736775
0.006100999999999999	0.1202951952622959	0.0912312594769536	0.0475698857126257	0.0424205853839918	0.1954143256983591	0.0018620844721509
0.007100999999999998	0.1260693203936911	0.100869974263676	0.052971106860608	0.0446535064599509	0.2034655683121185	0.0058227761666179
0.008100999999999999	0.1318804759881344	0.1104772191445581	0.0584140367500012	0.0469014147356567	0.211539838329552	0.0097896300982735
0.009100999999999998	0.1377251298589557	0.120046716711781	0.0638963911882333	0.0491630454810926	0.2196320896442956	0.0137605285108301
0.010100999999999997	0.1435997029694376	0.1295722079478643	0.0694158486117217	0.05143711590027	0.2277372473022736	0.0177333591967192
0.011100999999999998	0.1495005741540096	0.1390474606218425	0.0749700522604804	0.053722326727783	0.2358502152110567	0.0217060181928001
0.012100999999999997	0.155424084891435	0.1484662777131581	0.0805566123698453	0.05601736384733	0.2439658839714063	0.0256764123743608
0.013100999999999996	0.1613665441199754	0.1578225058525244	0.0861731083761735	0.0583208999293887	0.2520791388178694	0.0296424619447583
0.014100999999999997	0.1673242330852913	0.1671100437690467	0.0918170911336804	0.0606315960853604	0.2601848676551376	0.0336021028191208
0.015100999999999996	0.1732934102124441	0.1763228507329361	0.0974860851396389	0.0629481035356744	0.2682779691765702	0.0375532889012749
0.016100999999999997	0.1792703159942527	0.1854549549831171	0.1031775907650351	0.0652690652893556	0.2763533610508268	0.0414939942534933
0.017100999999999998	0.1852511778889027	0.1945004621289944	0.1088890864875837	0.0675931178326703	0.284405988161889	0.0454222151590932
0.018101	0.1912322152202253	0.2034535635154782	0.1146180311237329	0.0699188928243746	0.2924308308871232	0.0493359720784627
0.019100999999999996	0.1972096440741582	0.2123085445403006	0.1203618660561522	0.0722450187950184	0.3004229133975243	0.0532333114996627
0.020100999999999997	0.2031796821847969	0.2210597929125269	0.1261180174530823	0.0745701228477147	0.3083773119636716	0.0571123076853316
0.021100999999999998	0.2091385538030974	0.2297018068409329	0.1318838984758306	0.0768928323577166	0.3162891632503956	0.060971064318062
0.022100999999999996	0.2150824945408925	0.2382292031405816	0.1376569114705993	0.079211776668305	0.324153672582508	0.0648077160467985
0.023100999999999997	0.2210077561825062	0.2466367252453315	0.1434344501407385	0.0815255887805322	0.3319661221632256	0.0686204299371422
0.024100999999999997	0.2269106114560896	0.2549192511134079	0.1492139016952827	0.0838329070345819	0.3397218792260965	0.0724074068288155
0.025100999999999995	0.2327873587569026	0.2630718010125127	0.15499264896955	0.0861323767806271	0.3474164041003008	0.0761668826038423
0.026100999999999996	0.2386343268152523	0.2710895451704106	0.1607680725133564	0.0884226520372092	0.3550452581681283	0.0798971293692584
0.027100999999999997	0.2444478793027713	0.2789678112762963	0.1665375526422968	0.0907023971351251	0.3626041116923388	0.0835964565584203
0.028100999999999998	0.2502244193717243	0.2867020918177129	0.1722984714473436	0.0929702883447766	0.3700887514901344	0.0872632119550695
0.029100999999999995	0.2559603941230676	0.294288051237125	0.1780482147580714	0.095225015484852	0.3774950884296755	0.0908957826444424
0.030100999999999996	0.2616522989995204	0.3017215328917568	0.1837841740550361	0.0974652835101518	0.3848191647245411	0.0944925958956429
0.031100999999999997	0.2672966821002206	0.3089985657997557	0.1895037483274533	0.0996898140762688	0.3920571610013904	0.0980521199794115
0.03210099999999999	0.2728901484137964	0.3161153711551752	0.1952043458732779	0.1018973470786936	0.3992054031163771	0.1015728649253155
0.03310099999999999	0.2784293639667936	0.3230683685936138	0.2008833860399925	0.1040866421636774	0.4062603686965751	0.1050533832222403
0.03410099999999999	0.2839110598847868	0.329854182189436	0.206538300905704	0.1062564802080985	0.4132186933833786	0.1084922704658414
0.03510099999999999	0.2893320363638169	0.3364696461646507	0.2121665369012837	0.1084056647656964	0.4200771767557165	0.1118881659564092
0.036100999999999994	0.2946891665500622	0.3429118102886176	0.2177655563754256	0.1105330234775161	0.4268327879124128	0.1152397532502659
0.03710099999999999	0.2999794003256942	0.3491779449472271	0.2233328391054511	0.1126374094450431	0.433482670695526	0.1185457606675455
0.03810099999999999	0.3051997679985986	0.355265545860067	0.2288658837576927	0.1147177025651711	0.4400241485391998	0.1218049617588161
0.03910099999999999	0.3103473838934695	0.3611723384240229	0.2343622093021724	0.1167728108265333	0.4464547289306366	0.1250161757328081
0.04010099999999999	0.3154194498414976	0.3668962816617762	0.2398193563871643	0.1188016715671368	0.4527721074710515	0.1281782678471684
0.04110099999999999	0.3204132585655388	0.3724355717534053	0.2452348886802041	0.1208032526934384	0.4589741715251299	0.1312901497639791
0.04210099999999999	0.3253261969571368	0.3777886451289008	0.2506063941827641	0.1227765538613437	0.4650590034480406	0.1343507798715313
0.04310099999999999	0.3301557492410854	0.3829541810990411	0.2559314865262339	0.1247206076196195	0.4710248833793806	0.1373591635735971
0.04410099999999999	0.3348995000225557	0.3879311040019364	0.261207806256899	0.1266344805162266	0.4768702915940364	0.1403143535472678
0.04510099999999999	0.3395551372109492	0.3927185848428727	0.2664330221175697	0.1285172741678941	0.4825939104005939	0.1432154499701411
0.04610099999999999	0.3441204548140253	0.3973160424061799	0.2716048323332073	0.130368126293089	0.4881946255790199	0.1460616007174723
0.04710099999999999	0.3485933555957444	0.4017231438200894	0.2767209659074868	0.1321862117084742	0.4936715273514794	0.1488520015297209
0.04810099999999999	0.3529718535924105	0.4059398045592506	0.2817791839366955	0.133970743288761	0.4990239108839832	0.1515858961509224
0.049100999999999985	0.3572540764841696	0.4099661878747696	0.2867772809466009	0.1357209728898025	0.5042512763215721	0.1542625764386593
0.050100999999999986	0.3614382678222014	0.4138027036482222	0.291713086257357	0.1374361922345624	0.5093533283644965	0.1568813824472724
0.05110099999999999	0.3655227891145198	0.4174500066726255	0.2965844653807485	0.1391157337613573	0.5143299753963025	0.1594417024870119
0.05210099999999999	0.3695061217748201	0.4209089943682333	0.3013893214534614	0.1407589714335999	0.5191813281769855	0.1619429731627074
0.05310099999999999	0.3733868689390774	0.424180803943387	0.3061255967095706	0.1423653215100945	0.5239076981157139	0.1643846793958935
0.05410099999999999	0.3771637571541667	0.4272668090111831	0.3107912739949727	0.1439342432748515	0.5285095951384898	0.1667663544342193
0.05510099999999999	0.3808356379420978	0.4301686156726315	0.315384378326253	0.1454652397252628	0.5329877251664658	0.1690875798516901
0.056100999999999984	0.3844014892426744	0.4328880580775276	0.3199029784961165	0.1469578582173374	0.5373429872206337	0.1713479855427821
0.057100999999999985	0.3878604167366701	0.4354271934759435	0.3243451887271442	0.1484116910665302	0.5415764701679923	0.1735472497130213
0.058100999999999986	0.3912116550509316	0.4377882967759477	0.3287091703749883	0.1498263761024234	0.5456894491234324	0.1756850988681202
0.05910099999999999	0.3944545688459208	0.4399738546258057	0.3329931336812579	0.1512015971752465	0.5496833815204973	0.1777613078032914
0.06010099999999999	0.3975886537853003	0.4419865590404652	0.3371953395753432	0.1525370846120321	0.5535599028634282	0.179775699593982
0.06110099999999999	0.4006135373863336	0.4438293005923443	0.341314101523404	0.1538326156201157	0.557320822172588	0.1817281455887854
0.06210099999999998	0.4035289797492537	0.4455051611858456	0.3453477874218337	0.1550880146357094	0.5609681171353579	0.1836185654047198
0.06310099999999999	0.406334874163241	0.447017406434432	0.3492948215315532	0.1563031536153642	0.564503928974504	0.1854469269245122
0.06410099999999999	0.4090312475860258	0.448369477658763	0.353153686448604	0.1574779522680723	0.5679305570455133	0.1872132462948827
0.06510099999999999	0.4116182609932764	0.4495649835249046	0.3569229251055357	0.1586123782255949	0.5712504531734607	0.1889175879243893
0.066101	0.4140962095928254	0.4506076913432667	0.3606011427972807	0.1597064471482008	0.5744662157388922	0.1905600644789994
0.067101	0.4164655228976455	0.4515015180516401	0.3641870092243824	0.1607602227626366	0.5775805835212899	0.1921408368732091
0.068101	0.4187267646500505	0.4522505209087558	0.3676792605455645	0.1617738168289049	0.5805964293082595	0.1936601142541306
0.069101	0.420880632588438	0.4528588879268239	0.3710767014306789	0.1627473890323589	0.5835167532783777	0.1951181539753939
0.070101	0.4229279580467225	0.4533309280723787	0.3743782071040571	0.1636811467976866	0.5863446761651906	0.196515261557164
0.071101	0.4248697053759385	0.4536710612648232	0.3775827253671373	0.1645753450213211	0.589083432208938	0.197851790628075
0.07210099999999998	0.4267069711769234	0.4538838082017526	0.3806892785881881	0.1654302857186634	0.5917363619010901	0.1991281428444867
0.07310099999999999	0.4284409833325469	0.4539737800399666	0.38369696564589	0.1662463175823114	0.5943069045251673	0.2003447677823025
0.07410099999999999	0.4300730998274971	0.4539456679607527	0.3866049638126459	0.1670238354473735	0.5967985904956776	0.2015021627964597
0.07510099999999999	0.4316048073432654	0.4538042326478309	0.3894125305627241	0.1677632796601488	0.5992150334958088	0.2026008728431645
0.07610099999999999	0.433037719616104	0.4535542937058848	0.3921190052897288	0.1684651353468909	0.6015599224135295	0.203641490259928
0.07710099999999999	0.4343735755464583	0.4532007190474649	0.394723810917484	0.1691299315799168	0.6038370130750267	0.2046246544982895
0.07810099999999999	0.4356142370495666	0.4527484142759904	0.3972264553880243	0.1697582404391278	0.6060501197737302	0.2055510518039738
0.07910099999999999	0.4367616866382324	0.4522023120926751	0.3996265330102296	0.1703506759679978	0.6082031065926837	0.2064214148390576
0.08010099999999999	0.437818024730344	0.4515673617553148	0.4019237256524941	0.1709078930241144	0.6102998785178935	0.2072365222408884
0.08110099999999999	0.4387854666753426	0.4508485186169701	0.4041178037626815	0.1714305860252524	0.6123443723407892	0.2079971981129423
0.082101	0.43966633949617	0.4500507337728385	0.4062086271988784	0.171919487592742	0.6143405473500664	0.208704311443632
0.083101	0.4404630783461379	0.4491789438436674	0.408196145855273	0.1723753670943826	0.6162923758176035	0.2093587754497528
